<?xml version="1.0" standalone="no"?>
<!DOCTYPE svg PUBLIC "-//W3C//DTD SVG 20010904//EN"
 "http://www.w3.org/TR/2001/REC-SVG-20010904/DTD/svg10.dtd">
<svg version="1.0" xmlns="http://www.w3.org/2000/svg"
 width="1240.000000pt" height="574.000000pt" viewBox="0 0 1240.000000 574.000000"
 preserveAspectRatio="xMidYMid meet">

<g transform="translate(0.000000,574.000000) scale(0.100000,-0.100000)"
fill="#000000" stroke="none">
<path d="M11420 5719 c-12 -9 -12 -10 3 -5 26 8 52 -9 67 -44 14 -34 16 -35
50 -15 28 16 19 21 -10 5 -16 -9 -22 -5 -35 20 -8 16 -24 34 -34 40 -24 12
-22 12 -41 -1z"/>
<path d="M11360 5695 c-14 -8 -20 -14 -15 -14 6 0 21 6 35 14 14 8 21 14 15
14 -5 0 -21 -6 -35 -14z"/>
<path d="M11590 5684 c-17 -10 -18 -13 -5 -8 11 3 34 10 50 14 27 7 28 8 5 9
-14 0 -36 -7 -50 -15z"/>
<path d="M11700 5664 c42 -36 67 -84 49 -95 -8 -5 -100 -60 -206 -122 -173
-103 -202 -117 -293 -140 l-102 -25 -16 36 c-9 21 -16 58 -16 84 -1 45 -16 45
-16 0 0 -24 160 -465 167 -459 2 2 -4 23 -12 47 -8 24 -14 44 -13 45 2 1 30
10 63 18 55 15 45 15 -41 0 -28 -5 -32 -2 -47 39 -9 24 -17 49 -17 54 0 6 28
17 62 24 34 8 57 15 51 17 -6 2 -36 -2 -67 -10 l-55 -15 -20 52 c-10 28 -16
54 -13 57 4 4 60 19 124 35 64 15 114 32 112 36 -3 5 5 6 18 3 12 -3 64 6 113
19 50 13 84 25 77 25 -8 1 -50 -8 -94 -19 -44 -12 -85 -19 -90 -18 -6 2 70 51
168 110 l179 106 27 -52 c15 -28 27 -56 28 -62 0 -6 -28 -17 -62 -24 -34 -8
-57 -15 -51 -17 6 -2 37 3 67 11 l57 14 24 -49 c30 -58 31 -66 8 -72 -11 -3
-10 -3 3 -2 17 1 27 -10 47 -51 24 -47 24 -53 9 -57 -12 -3 -11 -5 6 -6 12 0
22 -4 21 -8 0 -5 -133 -109 -296 -232 -273 -205 -298 -222 -310 -205 -7 10
-13 15 -13 11 0 -4 65 -181 145 -394 150 -402 166 -434 218 -432 16 0 12 3
-13 12 -19 7 -33 17 -30 22 2 6 123 96 268 202 201 146 273 193 304 198 21 4
37 9 35 12 -3 2 -33 -1 -67 -8 -34 -6 -57 -15 -52 -18 11 -7 -474 -363 -496
-365 -9 -1 -29 39 -58 113 -24 63 -42 116 -41 117 2 2 30 10 62 18 55 14 27
14 -45 -1 -23 -4 -27 1 -48 58 -12 34 -21 63 -20 65 2 1 19 7 38 13 l35 10
-41 -5 c-40 -5 -41 -5 -57 38 -17 42 -17 43 5 61 13 9 43 23 67 30 32 9 38 13
23 17 -15 4 37 48 234 198 139 106 260 195 267 198 10 4 32 -32 76 -122 34
-70 60 -128 59 -129 -2 -1 -30 -10 -63 -18 -55 -15 -45 -15 42 0 30 5 33 3 58
-47 26 -51 25 -63 -5 -73 -8 -2 -3 -3 12 -1 25 3 31 -3 58 -56 16 -33 30 -62
30 -64 0 -3 -15 -10 -32 -16 l-33 -10 35 5 c34 5 37 3 58 -40 36 -74 26 -111
-50 -181 -103 -95 -235 -166 -381 -204 -40 -10 -62 -19 -50 -19 37 -1 185 49
253 86 36 19 90 55 122 78 31 24 59 41 62 38 3 -4 6 -29 6 -56 0 -59 -24 -86
-124 -138 -36 -18 -63 -35 -61 -37 7 -8 130 64 163 95 34 32 35 34 30 98 -5
55 -3 67 14 82 26 23 48 66 48 92 0 24 -24 75 -379 801 -257 525 -298 600
-334 600 -5 0 5 -12 23 -26z m298 -608 c-8 -6 -144 -110 -303 -231 -159 -121
-291 -220 -293 -220 -3 0 -14 26 -25 58 -18 50 -19 59 -6 72 7 7 142 111 299
230 l284 215 29 -57 c25 -47 27 -58 15 -67z m48 -57 c14 -29 22 -55 17 -58
-114 -78 -531 -407 -526 -414 3 -6 1 -7 -6 -3 -6 4 -25 -4 -42 -18 -17 -14
-34 -26 -38 -26 -14 0 -46 109 -36 119 23 22 591 451 597 451 4 0 19 -23 34
-51z"/>
<path d="M11290 5665 c-14 -8 -20 -14 -15 -14 6 0 21 6 35 14 14 8 21 14 15
14 -5 0 -21 -6 -35 -14z"/>
<path d="M11247 5643 c-10 -10 -8 -62 3 -83 8 -15 2 -21 -44 -40 -30 -12 -63
-31 -73 -43 -18 -22 -18 -22 2 -5 11 9 89 46 173 82 85 36 161 71 170 77 26
16 0 7 -111 -42 -110 -47 -120 -45 -115 24 2 20 3 37 2 37 0 0 -4 -3 -7 -7z"/>
<path d="M11668 5403 c7 -3 16 -2 19 1 4 3 -2 6 -13 5 -11 0 -14 -3 -6 -6z"/>
<path d="M11628 5393 c7 -3 16 -2 19 1 4 3 -2 6 -13 5 -11 0 -14 -3 -6 -6z"/>
<path d="M11750 5295 c-25 -7 -38 -13 -30 -14 8 0 38 6 65 13 28 8 41 14 30
14 -11 0 -40 -6 -65 -13z"/>
<path d="M11678 5273 c7 -3 16 -2 19 1 4 3 -2 6 -13 5 -11 0 -14 -3 -6 -6z"/>
<path d="M11580 5255 c-25 -7 -38 -13 -30 -14 8 0 38 6 65 13 28 8 41 14 30
14 -11 0 -40 -6 -65 -13z"/>
<path d="M11508 5233 c7 -3 16 -2 19 1 4 3 -2 6 -13 5 -11 0 -14 -3 -6 -6z"/>
<path d="M11410 5215 c-25 -7 -38 -13 -30 -14 8 0 38 6 65 13 28 8 41 14 30
14 -11 0 -40 -6 -65 -13z"/>
<path d="M11338 5193 c7 -3 16 -2 19 1 4 3 -2 6 -13 5 -11 0 -14 -3 -6 -6z"/>
<path d="M11878 5193 c7 -3 16 -2 19 1 4 3 -2 6 -13 5 -11 0 -14 -3 -6 -6z"/>
<path d="M11760 5170 c-36 -10 -58 -18 -50 -19 8 0 47 8 85 18 39 11 61 19 50
19 -11 0 -49 -8 -85 -18z"/>
<path d="M11668 5143 c7 -3 16 -2 19 1 4 3 -2 6 -13 5 -11 0 -14 -3 -6 -6z"/>
<path d="M11510 5110 c-58 -15 -99 -29 -92 -29 8 -1 50 8 94 20 44 11 82 19
83 17 2 -2 -65 -51 -148 -109 -137 -96 -153 -105 -166 -90 -11 14 -12 13 -6
-9 4 -14 12 -32 17 -40 8 -12 9 -12 4 2 -4 13 33 44 157 131 89 62 171 119
182 125 l20 11 -20 0 c-11 -1 -67 -14 -125 -29z"/>
<path d="M11378 5073 c7 -3 16 -2 19 1 4 3 -2 6 -13 5 -11 0 -14 -3 -6 -6z"/>
<path d="M11306 4830 c3 -14 11 -32 16 -40 6 -10 7 -7 2 10 -3 14 -11 32 -16
40 -6 10 -7 7 -2 -10z"/>
<path d="M12010 4630 c-20 -6 -21 -8 -5 -8 11 0 31 4 45 8 20 6 21 8 5 8 -11
0 -31 -4 -45 -8z"/>
<path d="M11920 4610 c-20 -6 -21 -8 -5 -8 11 0 31 4 45 8 20 6 21 8 5 8 -11
0 -31 -4 -45 -8z"/>
<path d="M11810 4585 c-25 -7 -38 -13 -30 -14 8 0 38 6 65 13 28 8 41 14 30
14 -11 0 -40 -6 -65 -13z"/>
<path d="M11700 4560 c-20 -6 -21 -8 -5 -8 11 0 31 4 45 8 20 6 21 8 5 8 -11
0 -31 -4 -45 -8z"/>
<path d="M11610 4540 c-20 -6 -21 -8 -5 -8 11 0 31 4 45 8 20 6 21 8 5 8 -11
0 -31 -4 -45 -8z"/>
<path d="M12080 4509 c-98 -22 -123 -31 -65 -23 56 8 194 42 170 42 -11 0 -58
-9 -105 -19z"/>
<path d="M11910 4470 c-20 -6 -21 -8 -5 -8 11 0 31 4 45 8 20 6 21 8 5 8 -11
0 -31 -4 -45 -8z"/>
<path d="M11820 4450 c-20 -6 -21 -8 -5 -8 11 0 31 4 45 8 20 6 21 8 5 8 -11
0 -31 -4 -45 -8z"/>
<path d="M11730 4430 c-20 -6 -21 -8 -5 -8 11 0 31 4 45 8 20 6 21 8 5 8 -11
0 -31 -4 -45 -8z"/>
<path d="M11615 4405 c-27 -7 -41 -13 -30 -13 11 0 43 6 70 13 28 7 41 13 30
13 -11 0 -42 -6 -70 -13z"/>
<path d="M12060 4350 c-20 -6 -21 -8 -5 -8 11 0 31 4 45 8 20 6 21 8 5 8 -11
0 -31 -4 -45 -8z"/>
<path d="M11945 4325 c-27 -7 -41 -13 -30 -13 11 0 43 6 70 13 28 7 41 13 30
13 -11 0 -42 -6 -70 -13z"/>
<path d="M11805 4295 c-27 -7 -41 -13 -30 -13 11 0 43 6 70 13 28 7 41 13 30
13 -11 0 -42 -6 -70 -13z"/>
<path d="M11690 4270 c-20 -6 -21 -8 -5 -8 11 0 31 4 45 8 20 6 21 8 5 8 -11
0 -31 -4 -45 -8z"/>
<path d="M11793 3913 c13 -21 40 -46 60 -56 33 -17 44 -17 88 -7 27 7 48 14
46 17 -3 2 -25 -1 -50 -7 -38 -10 -51 -9 -81 5 -20 10 -43 30 -51 46 -15 27
-14 28 18 32 27 3 26 4 -11 5 l-42 2 23 -37z"/>
<path d="M11752 3900 c0 -14 2 -19 5 -12 2 6 2 18 0 25 -3 6 -5 1 -5 -13z"/>
<path d="M12065 3899 c-22 -10 -29 -16 -15 -13 28 7 80 33 65 33 -5 0 -28 -9
-50 -20z"/>
<path d="M11743 3760 c0 -36 2 -50 4 -32 2 17 2 47 0 65 -2 17 -4 3 -4 -33z"/>
<path d="M2778 3653 c6 -2 18 -2 25 0 6 3 1 5 -13 5 -14 0 -19 -2 -12 -5z"/>
<path d="M2908 3653 c6 -2 18 -2 25 0 6 3 1 5 -13 5 -14 0 -19 -2 -12 -5z"/>
<path d="M2720 3640 c-18 -12 -2 -12 25 0 13 6 15 9 5 9 -8 0 -22 -4 -30 -9z"/>
<path d="M11733 3600 c0 -30 2 -43 4 -27 2 15 2 39 0 55 -2 15 -4 2 -4 -28z"/>
<path d="M3040 3616 c17 -10 27 -26 31 -53 l6 -38 2 37 c1 28 -4 41 -21 52
-12 9 -27 16 -33 16 -5 -1 1 -7 15 -14z"/>
<path d="M3929 3586 c-20 -14 -58 -57 -85 -96 -35 -51 -53 -70 -66 -67 -9 3
-19 -1 -21 -8 -4 -8 3 -10 19 -7 16 3 42 30 78 81 29 42 68 84 85 94 31 18 31
18 32 -5 1 -19 2 -19 6 -4 8 32 -11 37 -48 12z"/>
<path d="M2609 3573 c-13 -16 -12 -17 4 -4 9 7 17 15 17 17 0 8 -8 3 -21 -13z"/>
<path d="M2778 3573 c12 -2 32 -2 45 0 12 2 2 4 -23 4 -25 0 -35 -2 -22 -4z"/>
<path d="M2570 3540 c-6 -11 -8 -20 -6 -20 3 0 10 9 16 20 6 11 8 20 6 20 -3
0 -10 -9 -16 -20z"/>
<path d="M2898 3550 c12 -5 24 -10 27 -10 3 0 23 -7 46 -16 23 -8 44 -12 46
-10 5 4 -116 46 -131 45 -6 0 -1 -4 12 -9z"/>
<path d="M2612 3516 c-43 -29 -52 -31 -55 -17 -3 9 -5 3 -6 -13 l-1 -29 23 21
c12 11 42 32 67 46 25 14 40 26 34 26 -7 0 -35 -15 -62 -34z"/>
<path d="M3938 3509 c-15 -21 -26 -39 -23 -39 7 0 58 70 54 74 -2 2 -16 -14
-31 -35z"/>
<path d="M2853 3523 c9 -2 25 -2 35 0 9 3 1 5 -18 5 -19 0 -27 -2 -17 -5z"/>
<path d="M2763 3513 c9 -2 25 -2 35 0 9 3 1 5 -18 5 -19 0 -27 -2 -17 -5z"/>
<path d="M2696 3495 c4 -8 7 -15 9 -15 2 0 5 7 9 15 3 9 0 15 -9 15 -9 0 -12
-6 -9 -15z"/>
<path d="M11723 3465 c0 -27 2 -38 4 -22 2 15 2 37 0 50 -2 12 -4 0 -4 -28z"/>
<path d="M3080 3485 c0 -5 5 -17 10 -25 5 -8 10 -10 10 -5 0 6 -5 17 -10 25
-5 8 -10 11 -10 5z"/>
<path d="M2720 3445 c0 -5 5 -17 10 -25 5 -8 10 -10 10 -5 0 6 -5 17 -10 25
-5 8 -10 11 -10 5z"/>
<path d="M3101 3424 c0 -11 3 -14 6 -6 3 7 2 16 -1 19 -3 4 -6 -2 -5 -13z"/>
<path d="M3890 3432 c0 -4 23 -26 50 -50 65 -56 65 -48 0 11 -27 25 -50 43
-50 39z"/>
<path d="M2529 3423 c0 -5 -2 -18 -3 -30 -2 -13 0 -23 4 -23 13 0 2 -81 -14
-99 -9 -10 -16 -24 -16 -32 0 -8 6 -3 13 10 6 13 17 24 22 24 13 0 39 37 31
44 -3 4 -6 1 -6 -5 0 -7 -4 -12 -10 -12 -5 0 -10 12 -10 28 0 21 2 24 10 12
14 -21 12 -8 -4 31 -7 19 -11 40 -9 47 3 6 2 12 -1 12 -3 0 -6 -3 -7 -7z"/>
<path d="M3112 3380 c0 -14 2 -19 5 -12 2 6 2 18 0 25 -3 6 -5 1 -5 -13z"/>
<path d="M3725 3360 c-9 -16 -13 -30 -11 -30 3 0 12 14 21 30 9 17 13 30 11
30 -3 0 -12 -13 -21 -30z"/>
<path d="M2701 3356 c-18 -19 -22 -32 -18 -72 l3 -49 2 49 c1 36 8 56 24 73
12 13 19 23 16 23 -2 0 -15 -11 -27 -24z"/>
<path d="M11713 3335 c0 -27 2 -38 4 -22 2 15 2 37 0 50 -2 12 -4 0 -4 -28z"/>
<path d="M3122 3320 c0 -14 2 -19 5 -12 2 6 2 18 0 25 -3 6 -5 1 -5 -13z"/>
<path d="M4001 3288 c-1 -21 7 -22 29 -7 13 9 13 10 -2 6 -9 -3 -19 -1 -22 6
-2 7 -5 4 -5 -5z"/>
<path d="M3132 3270 c0 -14 2 -19 5 -12 2 6 2 18 0 25 -3 6 -5 1 -5 -13z"/>
<path d="M4057 3280 c6 -8 13 -26 16 -40 l4 -25 2 26 c0 15 -7 33 -16 40 -16
12 -17 12 -6 -1z"/>
<path d="M2560 3266 c0 -3 9 -10 20 -16 11 -6 20 -8 20 -6 0 3 -9 10 -20 16
-11 6 -20 8 -20 6z"/>
<path d="M3672 3220 c0 -19 2 -27 5 -17 2 9 2 25 0 35 -3 9 -5 1 -5 -18z"/>
<path d="M11703 3210 c0 -25 2 -35 4 -22 2 12 2 32 0 45 -2 12 -4 2 -4 -23z"/>
<path d="M2610 3236 c0 -3 9 -10 20 -16 11 -6 20 -8 20 -6 0 3 -9 10 -20 16
-11 6 -20 8 -20 6z"/>
<path d="M3141 3224 c0 -11 3 -14 6 -6 3 7 2 16 -1 19 -3 4 -6 -2 -5 -13z"/>
<path d="M2691 3211 c-1 -8 -8 -11 -18 -7 -15 5 -14 3 2 -9 20 -16 31 -7 22
18 -4 9 -6 9 -6 -2z"/>
<path d="M2500 3191 c0 -6 4 -13 10 -16 6 -3 7 1 4 9 -7 18 -14 21 -14 7z"/>
<path d="M3151 3164 c0 -11 3 -14 6 -6 3 7 2 16 -1 19 -3 4 -6 -2 -5 -13z"/>
<path d="M3681 3154 c0 -11 3 -14 6 -6 3 7 2 16 -1 19 -3 4 -6 -2 -5 -13z"/>
<path d="M2536 3132 c10 -18 28 -41 38 -50 12 -10 8 0 -9 23 -40 56 -51 66
-29 27z"/>
<path d="M11693 3090 c0 -25 2 -35 4 -22 2 12 2 32 0 45 -2 12 -4 2 -4 -23z"/>
<path d="M3142 3095 c0 -16 2 -22 5 -12 2 9 2 23 0 30 -3 6 -5 -1 -5 -18z"/>
<path d="M3691 3104 c0 -11 3 -14 6 -6 3 7 2 16 -1 19 -3 4 -6 -2 -5 -13z"/>
<path d="M3985 3060 c-14 -27 -23 -50 -20 -50 2 0 16 23 30 50 14 28 23 50 20
50 -2 0 -16 -22 -30 -50z"/>
<path d="M2617 3053 c16 -13 23 -31 26 -68 l3 -50 2 56 c2 52 0 57 -25 68 -28
12 -28 12 -6 -6z"/>
<path d="M3701 3054 c0 -11 3 -14 6 -6 3 7 2 16 -1 19 -3 4 -6 -2 -5 -13z"/>
<path d="M3132 3030 c0 -14 2 -19 5 -12 2 6 2 18 0 25 -3 6 -5 1 -5 -13z"/>
<path d="M3711 3004 c0 -11 3 -14 6 -6 3 7 2 16 -1 19 -3 4 -6 -2 -5 -13z"/>
<path d="M11682 3000 c0 -14 2 -19 5 -12 2 6 2 18 0 25 -3 6 -5 1 -5 -13z"/>
<path d="M3117 2978 c-4 -15 -25 -48 -47 -73 -22 -25 -40 -54 -40 -63 1 -10 6
-4 14 13 7 17 23 39 36 50 27 24 53 72 47 88 -2 7 -7 0 -10 -15z"/>
<path d="M3722 2960 c0 -14 2 -19 5 -12 2 6 2 18 0 25 -3 6 -5 1 -5 -13z"/>
<path d="M11671 2944 c0 -11 3 -14 6 -6 3 7 2 16 -1 19 -3 4 -6 -2 -5 -13z"/>
<path d="M8480 2938 c-83 -24 -133 -94 -133 -188 0 -30 6 -66 13 -80 22 -43
163 -240 168 -236 2 3 -27 49 -66 103 -98 139 -105 154 -100 229 7 105 67 164
168 164 101 0 161 -59 168 -164 5 -73 -3 -91 -87 -211 -72 -101 -80 -114 -60
-98 31 25 151 212 159 249 17 71 -14 164 -67 202 -26 19 -96 43 -118 41 -5 0
-26 -5 -45 -11z"/>
<path d="M3923 2905 c0 -22 2 -30 4 -17 2 12 2 30 0 40 -3 9 -5 -1 -4 -23z"/>
<path d="M3731 2918 c-1 -9 -3 -22 -4 -30 -2 -7 -2 -9 1 -4 3 5 11 -2 18 -15
7 -13 13 -18 14 -11 0 6 12 13 28 13 24 1 23 2 -8 8 -25 4 -36 12 -41 31 -4
14 -7 18 -8 8z"/>
<path d="M11661 2904 c0 -11 3 -14 6 -6 3 7 2 16 -1 19 -3 4 -6 -2 -5 -13z"/>
<path d="M11058 2903 c6 -2 18 -2 25 0 6 3 1 5 -13 5 -14 0 -19 -2 -12 -5z"/>
<path d="M9728 2893 c29 -2 74 -2 100 0 26 2 2 3 -53 3 -55 0 -76 -1 -47 -3z"/>
<path d="M10986 2881 c-35 -23 -66 -69 -65 -96 0 -14 3 -12 9 9 11 36 47 75
85 92 17 7 23 13 15 14 -8 0 -28 -9 -44 -19z"/>
<path d="M11125 2886 c38 -17 74 -56 85 -92 6 -21 9 -23 9 -9 2 41 -69 115
-109 115 -8 -1 -1 -7 15 -14z"/>
<path d="M2630 2870 c0 -11 -3 -20 -8 -20 -4 0 -13 -9 -20 -21 -13 -21 -13
-21 12 -3 21 16 37 64 21 64 -3 0 -5 -9 -5 -20z"/>
<path d="M9618 2883 c6 -2 18 -2 25 0 6 3 1 5 -13 5 -14 0 -19 -2 -12 -5z"/>
<path d="M9923 2883 c9 -2 25 -2 35 0 9 3 1 5 -18 5 -19 0 -27 -2 -17 -5z"/>
<path d="M9568 2873 c7 -3 16 -2 19 1 4 3 -2 6 -13 5 -11 0 -14 -3 -6 -6z"/>
<path d="M9998 2873 c6 -2 18 -2 25 0 6 3 1 5 -13 5 -14 0 -19 -2 -12 -5z"/>
<path d="M3843 2863 c9 -2 25 -2 35 0 9 3 1 5 -18 5 -19 0 -27 -2 -17 -5z"/>
<path d="M8473 2851 c-41 -26 -58 -80 -39 -126 18 -43 52 -65 99 -65 31 0 46
7 74 35 32 32 35 40 30 77 -11 81 -96 122 -164 79z m124 -22 c30 -29 38 -71
19 -108 -30 -57 -94 -68 -145 -25 -24 20 -31 34 -31 63 0 88 93 130 157 70z"/>
<path d="M9518 2863 c7 -3 16 -2 19 1 4 3 -2 6 -13 5 -11 0 -14 -3 -6 -6z"/>
<path d="M10058 2863 c7 -3 16 -2 19 1 4 3 -2 6 -13 5 -11 0 -14 -3 -6 -6z"/>
<path d="M3712 2738 c-1 -71 1 -128 6 -128 4 0 6 39 4 87 -4 156 -8 171 -10
41z"/>
<path d="M9478 2853 c7 -3 16 -2 19 1 4 3 -2 6 -13 5 -11 0 -14 -3 -6 -6z"/>
<path d="M10108 2853 c7 -3 16 -2 19 1 4 3 -2 6 -13 5 -11 0 -14 -3 -6 -6z"/>
<path d="M3932 2820 c0 -19 2 -27 5 -17 2 9 2 25 0 35 -3 9 -5 1 -5 -18z"/>
<path d="M10178 2833 c7 -3 16 -2 19 1 4 3 -2 6 -13 5 -11 0 -14 -3 -6 -6z"/>
<path d="M11006 2809 c-14 -17 -26 -41 -26 -54 0 -13 12 -37 26 -54 53 -63
154 -28 154 54 0 82 -101 117 -154 54z m121 -1 c50 -47 14 -128 -58 -128 -42
0 -79 35 -79 75 0 12 9 34 21 49 27 34 82 36 116 4z"/>
<path d="M3831 2826 c10 -9 69 -36 69 -32 0 6 -55 36 -66 36 -4 0 -5 -2 -3 -4z"/>
<path d="M10220 2822 c8 -5 26 -13 40 -16 17 -5 20 -4 10 2 -8 5 -26 13 -40
16 -17 5 -20 4 -10 -2z"/>
<path d="M11607 2765 c-15 -30 -25 -55 -22 -55 7 0 57 101 53 106 -2 2 -16
-21 -31 -51z"/>
<path d="M3022 2780 c0 -19 2 -27 5 -17 2 9 2 25 0 35 -3 9 -5 1 -5 -18z"/>
<path d="M2572 2788 c-7 -7 -12 -17 -12 -22 0 -6 5 -3 11 7 10 17 12 17 36 2
14 -10 22 -12 19 -6 -13 21 -42 31 -54 19z"/>
<path d="M10311 2786 c10 -9 69 -36 69 -32 0 6 -55 36 -66 36 -4 0 -5 -2 -3
-4z"/>
<path d="M9200 2755 c-14 -8 -20 -14 -15 -14 6 0 21 6 35 14 14 8 21 14 15 14
-5 0 -21 -6 -35 -14z"/>
<path d="M3941 2705 c-1 -33 -5 -65 -9 -71 -10 -15 -87 -54 -107 -54 -9 0 -14
-4 -11 -9 4 -5 0 -12 -6 -14 -8 -3 -6 -6 5 -6 9 -1 17 3 17 8 0 5 10 13 23 17
12 4 38 17 58 30 20 13 38 21 40 19 4 -4 0 88 -5 120 -2 11 -4 -7 -5 -40z"/>
<path d="M10911 2744 c0 -11 3 -14 6 -6 3 7 2 16 -1 19 -3 4 -6 -2 -5 -13z"/>
<path d="M11221 2744 c0 -11 3 -14 6 -6 3 7 2 16 -1 19 -3 4 -6 -2 -5 -13z"/>
<path d="M2641 2710 c0 -8 4 -22 9 -30 12 -18 12 -2 0 25 -6 13 -9 15 -9 5z"/>
<path d="M10445 2713 c6 -6 30 -28 55 -49 30 -25 37 -29 20 -10 -14 15 -38 37
-55 49 -16 11 -25 16 -20 10z"/>
<path d="M10921 2704 c-1 -18 109 -188 141 -219 19 -17 -2 16 -65 103 -32 46
-63 95 -67 110 -7 22 -8 23 -9 6z"/>
<path d="M11211 2704 c0 -11 -30 -62 -66 -112 -36 -51 -65 -96 -65 -99 0 -8
70 87 114 154 15 23 26 50 23 60 -4 16 -5 15 -6 -3z"/>
<path d="M2511 2694 c0 -11 3 -14 6 -6 3 7 2 16 -1 19 -3 4 -6 -2 -5 -13z"/>
<path d="M2988 2673 c-9 -16 -48 -59 -86 -96 l-69 -68 -37 23 c-21 13 -57 38
-79 57 l-42 34 41 -39 c23 -22 59 -49 79 -62 34 -21 39 -21 55 -7 9 8 30 16
46 16 24 1 25 2 6 6 -21 4 -18 10 43 74 36 38 65 74 65 79 0 16 -4 12 -22 -17z"/>
<path d="M9058 2684 c-38 -20 -36 -28 2 -9 17 9 30 18 30 20 0 7 -1 6 -32 -11z"/>
<path d="M11559 2683 c-13 -16 -12 -17 4 -4 16 13 21 21 13 21 -2 0 -10 -8
-17 -17z"/>
<path d="M2541 2645 c-26 -24 -41 -31 -43 -23 -3 7 -7 -2 -10 -19 l-4 -32 34
39 c62 73 63 73 161 -21 l86 -84 -85 88 c-46 48 -88 87 -92 87 -4 0 -26 -16
-47 -35z"/>
<path d="M3130 2660 c6 -11 13 -20 16 -20 2 0 0 9 -6 20 -6 11 -13 20 -16 20
-2 0 0 -9 6 -20z"/>
<path d="M2501 2654 c0 -11 3 -14 6 -6 3 7 2 16 -1 19 -3 4 -6 -2 -5 -13z"/>
<path d="M3020 2663 c0 -4 17 -16 38 -26 30 -14 33 -14 17 -1 -29 23 -55 36
-55 27z"/>
<path d="M3188 2663 c6 -2 18 -2 25 0 6 3 1 5 -13 5 -14 0 -19 -2 -12 -5z"/>
<path d="M3243 2653 c9 -2 23 -2 30 0 6 3 -1 5 -18 5 -16 0 -22 -2 -12 -5z"/>
<path d="M11495 2608 l-50 -53 53 50 c48 46 57 55 49 55 -1 0 -25 -24 -52 -52z"/>
<path d="M3303 2643 c9 -2 23 -2 30 0 6 3 -1 5 -18 5 -16 0 -22 -2 -12 -5z"/>
<path d="M8974 2634 c-18 -14 -18 -15 4 -4 12 6 22 13 22 15 0 8 -5 6 -26 -11z"/>
<path d="M3001 2613 c-10 -26 -10 -27 4 -9 8 11 15 23 15 28 0 15 -7 8 -19
-19z"/>
<path d="M3358 2633 c6 -2 18 -2 25 0 6 3 1 5 -13 5 -14 0 -19 -2 -12 -5z"/>
<path d="M2260 2585 c-47 -24 -80 -44 -75 -44 6 0 48 20 95 44 47 24 81 44 75
44 -5 0 -48 -20 -95 -44z"/>
<path d="M3418 2623 c6 -2 18 -2 25 0 6 3 1 5 -13 5 -14 0 -19 -2 -12 -5z"/>
<path d="M10570 2605 c13 -14 26 -25 28 -25 3 0 -5 11 -18 25 -13 14 -26 25
-28 25 -3 0 5 -11 18 -25z"/>
<path d="M3100 2616 c0 -3 9 -10 20 -16 11 -6 20 -8 20 -6 0 3 -9 10 -20 16
-11 6 -20 8 -20 6z"/>
<path d="M3478 2613 c7 -3 16 -2 19 1 4 3 -2 6 -13 5 -11 0 -14 -3 -6 -6z"/>
<path d="M3760 2595 c14 -8 30 -14 35 -14 6 0 -1 6 -15 14 -14 8 -29 14 -35
14 -5 0 1 -6 15 -14z"/>
<path d="M3175 2590 c6 -10 4 -12 -9 -7 -10 4 -15 3 -11 -3 8 -13 35 -13 35
-1 0 6 -5 13 -12 17 -7 5 -8 3 -3 -6z"/>
<path d="M3370 2589 c-12 -9 -12 -10 4 -5 14 5 17 3 12 -11 -6 -15 -5 -16 5
-5 18 17 -1 35 -21 21z"/>
<path d="M3540 2596 c0 -2 7 -7 16 -10 8 -3 12 -2 9 4 -6 10 -25 14 -25 6z"/>
<path d="M8862 2565 c-28 -20 -52 -38 -52 -40 0 -3 25 11 55 31 48 32 62 44
52 44 -1 0 -26 -16 -55 -35z"/>
<path d="M3604 2545 c35 -51 42 -57 23 -19 -9 17 -23 37 -33 44 -9 8 -4 -3 10
-25z"/>
<path d="M3672 2568 c-7 -7 -12 -19 -11 -27 0 -11 3 -10 8 4 4 11 19 23 32 26
21 6 21 7 4 8 -12 1 -26 -4 -33 -11z"/>
<path d="M10610 2576 c0 -2 8 -10 18 -17 15 -13 16 -12 3 4 -13 16 -21 21 -21
13z"/>
<path d="M3738 2563 c6 -2 18 -2 25 0 6 3 1 5 -13 5 -14 0 -19 -2 -12 -5z"/>
<path d="M2940 2550 c-9 -6 -10 -10 -3 -10 6 0 15 5 18 10 8 12 4 12 -15 0z"/>
<path d="M3264 2531 c-21 -16 -59 -50 -84 -77 -39 -42 -36 -41 20 11 36 33 76
68 90 77 14 9 22 17 19 17 -3 1 -24 -12 -45 -28z"/>
<path d="M11410 2539 c-22 -18 -22 -19 -3 -10 12 6 25 16 28 21 9 15 3 12 -25
-11z"/>
<path d="M2063 2514 l-28 -25 33 22 c17 13 32 24 32 26 0 8 -11 1 -37 -23z"/>
<path d="M2172 2505 c0 -16 2 -22 5 -12 2 9 2 23 0 30 -3 6 -5 -1 -5 -18z"/>
<path d="M10680 2526 c0 -3 9 -10 20 -16 11 -6 20 -8 20 -6 0 3 -9 10 -20 16
-11 6 -20 8 -20 6z"/>
<path d="M2122 2495 c0 -16 2 -22 5 -12 2 9 2 23 0 30 -3 6 -5 -1 -5 -18z"/>
<path d="M3651 2504 c0 -11 3 -14 6 -6 3 7 2 16 -1 19 -3 4 -6 -2 -5 -13z"/>
<path d="M4023 2485 c0 -22 2 -30 4 -17 2 12 2 30 0 40 -3 9 -5 -1 -4 -23z"/>
<path d="M8765 2494 l-30 -26 33 22 c17 12 32 23 32 26 0 7 -4 5 -35 -22z"/>
<path d="M11340 2500 c-19 -11 -31 -19 -27 -20 11 0 67 29 67 35 0 7 -1 7 -40
-15z"/>
<path d="M2831 2485 c1 -19 18 -51 18 -35 0 8 -4 22 -9 30 -5 8 -9 11 -9 5z"/>
<path d="M3641 2454 c0 -11 3 -14 6 -6 3 7 2 16 -1 19 -3 4 -6 -2 -5 -13z"/>
<path d="M8680 2429 l-45 -41 48 37 c41 33 53 45 45 45 -2 0 -23 -18 -48 -41z"/>
<path d="M10815 2455 c17 -8 37 -14 45 -14 8 0 -1 7 -20 14 -46 18 -64 17 -25
0z"/>
<path d="M2162 2435 c0 -16 2 -22 5 -12 2 9 2 23 0 30 -3 6 -5 -1 -5 -18z"/>
<path d="M3331 2444 c0 -11 3 -14 6 -6 3 7 2 16 -1 19 -3 4 -6 -2 -5 -13z"/>
<path d="M2132 2425 c0 -16 2 -22 5 -12 2 9 2 23 0 30 -3 6 -5 -1 -5 -18z"/>
<path d="M2796 2425 c8 -37 14 -45 14 -19 0 10 -5 26 -10 34 -8 11 -9 7 -4
-15z"/>
<path d="M11198 2443 c7 -3 16 -2 19 1 4 3 -2 6 -13 5 -11 0 -14 -3 -6 -6z"/>
<path d="M4011 2424 c0 -11 3 -14 6 -6 3 7 2 16 -1 19 -3 4 -6 -2 -5 -13z"/>
<path d="M10888 2433 c7 -3 16 -2 19 1 4 3 -2 6 -13 5 -11 0 -14 -3 -6 -6z"/>
<path d="M11138 2433 c6 -2 18 -2 25 0 6 3 1 5 -13 5 -14 0 -19 -2 -12 -5z"/>
<path d="M2852 2410 c0 -14 2 -19 5 -12 2 6 2 18 0 25 -3 6 -5 1 -5 -13z"/>
<path d="M3631 2424 c-1 -6 -21 -32 -46 -56 -25 -25 -45 -54 -45 -64 1 -13 5
-10 14 11 17 38 66 85 67 64 0 -8 5 -3 10 10 5 13 8 29 5 35 -3 8 -5 8 -5 0z"/>
<path d="M10933 2423 c9 -2 25 -2 35 0 9 3 1 5 -18 5 -19 0 -27 -2 -17 -5z"/>
<path d="M11053 2423 c15 -2 37 -2 50 0 12 2 0 4 -28 4 -27 0 -38 -2 -22 -4z"/>
<path d="M3323 2375 c0 -22 2 -30 4 -17 2 12 2 30 0 40 -3 9 -5 -1 -4 -23z"/>
<path d="M4001 2384 c0 -11 3 -14 6 -6 3 7 2 16 -1 19 -3 4 -6 -2 -5 -13z"/>
<path d="M1944 2353 c-15 -20 -23 -33 -16 -29 13 8 56 66 49 66 -3 0 -17 -17
-33 -37z"/>
<path d="M2145 2380 c-3 -5 -3 -32 1 -59 5 -38 2 -60 -11 -87 -9 -19 -14 -38
-11 -41 3 -3 8 6 12 21 3 14 10 23 15 20 5 -3 9 31 9 75 0 79 -3 91 -15 71z"/>
<path d="M8565 2334 l-60 -56 63 53 c55 46 68 59 60 59 -2 0 -30 -25 -63 -56z"/>
<path d="M2813 2325 c0 -27 2 -38 4 -22 2 15 2 37 0 50 -2 12 -4 0 -4 -28z"/>
<path d="M2863 2315 c0 -33 2 -45 4 -27 2 18 2 45 0 60 -2 15 -4 0 -4 -33z"/>
<path d="M3611 2353 c-1 -6 -4 -20 -7 -30 -5 -17 -5 -17 6 0 6 10 9 23 6 30
-3 9 -5 9 -5 0z"/>
<path d="M1855 2248 l-60 -63 63 60 c58 55 67 65 59 65 -1 0 -29 -28 -62 -62z"/>
<path d="M3059 2279 c-6 -12 -30 -43 -52 -68 l-41 -46 40 37 c36 35 82 98 70
98 -3 0 -10 -10 -17 -21z"/>
<path d="M3580 2270 c-7 -16 -17 -27 -23 -23 -6 3 -7 1 -3 -5 4 -7 9 -12 11
-12 7 0 37 62 32 66 -2 3 -10 -9 -17 -26z"/>
<path d="M3340 2284 c0 -6 7 -19 16 -30 14 -18 14 -18 3 6 -14 31 -19 36 -19
24z"/>
<path d="M8353 2143 c-96 -94 -105 -105 -29 -34 160 151 181 171 175 171 -3 0
-68 -62 -146 -137z"/>
<path d="M2822 2115 l2 -130 5 110 c5 88 9 110 21 110 8 0 15 8 16 18 1 12 1
13 -3 2 -6 -20 -20 -19 -32 3 -7 12 -10 -21 -9 -113z"/>
<path d="M3946 2214 c-4 -14 -5 -28 -3 -31 3 -2 8 8 11 23 4 14 5 28 3 31 -3
2 -8 -8 -11 -23z"/>
<path d="M2161 2200 c0 -8 4 -24 9 -35 5 -13 9 -14 9 -5 0 8 -4 24 -9 35 -5
13 -9 14 -9 5z"/>
<path d="M1740 2145 c-24 -25 -42 -45 -39 -45 3 0 25 20 49 45 24 25 42 45 39
45 -3 0 -25 -20 -49 -45z"/>
<path d="M3430 2186 c0 -3 9 -10 20 -16 11 -6 20 -8 20 -6 0 3 -9 10 -20 16
-11 6 -20 8 -20 6z"/>
<path d="M2097 2145 c-9 -19 -15 -35 -12 -35 7 0 37 61 33 66 -3 2 -12 -12
-21 -31z"/>
<path d="M3466 2139 c-16 -16 -17 -19 -4 -19 9 0 19 7 22 16 9 24 4 24 -18 3z"/>
<path d="M3920 2141 c0 -6 -12 -23 -26 -37 -14 -15 -20 -24 -13 -22 18 6 54
56 46 65 -4 3 -7 1 -7 -6z"/>
<path d="M3416 2101 c-12 -13 -16 -31 -13 -58 l4 -38 1 39 c1 22 9 48 19 58 9
10 14 18 11 18 -3 0 -13 -9 -22 -19z"/>
<path d="M3503 2113 c9 -2 25 -2 35 0 9 3 1 5 -18 5 -19 0 -27 -2 -17 -5z"/>
<path d="M3598 2103 c12 -2 30 -2 40 0 9 3 -1 5 -23 4 -22 0 -30 -2 -17 -4z"/>
<path d="M2040 2058 c-19 -24 -26 -37 -17 -29 19 15 61 71 54 71 -2 0 -19 -19
-37 -42z"/>
<path d="M3698 2093 c12 -2 30 -2 40 0 9 3 -1 5 -23 4 -22 0 -30 -2 -17 -4z"/>
<path d="M1679 2073 c-29 -35 -41 -53 -36 -53 2 0 17 16 31 35 28 36 31 49 5
18z"/>
<path d="M3798 2083 c12 -2 30 -2 40 0 9 3 -1 5 -23 4 -22 0 -30 -2 -17 -4z"/>
<path d="M3330 2050 c-6 -11 -8 -20 -6 -20 3 0 10 9 16 20 6 11 8 20 6 20 -3
0 -10 -9 -16 -20z"/>
<path d="M2211 2040 c0 -8 6 -28 14 -45 17 -39 18 -21 0 25 -7 19 -14 28 -14
20z"/>
<path d="M2094 2018 c-4 -7 -4 -10 1 -6 4 4 15 2 24 -5 14 -11 14 -10 2 6 -16
20 -18 21 -27 5z"/>
<path d="M1979 2003 c-13 -16 -12 -17 4 -4 9 7 17 15 17 17 0 8 -8 3 -21 -13z"/>
<path d="M1612 1983 c-26 -38 -34 -53 -29 -53 2 0 16 18 31 40 29 45 28 56 -2
13z"/>
<path d="M2037 1971 c-19 -22 -40 -50 -46 -63 -11 -22 -11 -22 6 2 10 14 33
42 52 62 18 21 31 38 28 38 -2 0 -21 -18 -40 -39z"/>
<path d="M3290 1980 c-6 -11 -8 -20 -6 -20 3 0 10 9 16 20 6 11 8 20 6 20 -3
0 -10 -9 -16 -20z"/>
<path d="M1934 1968 l-19 -23 23 19 c21 18 27 26 19 26 -2 0 -12 -10 -23 -22z"/>
<path d="M8174 1958 l-29 -33 33 29 c17 17 32 31 32 33 0 8 -8 1 -36 -29z"/>
<path d="M3393 1930 c0 -25 2 -35 4 -22 2 12 2 32 0 45 -2 12 -4 2 -4 -23z"/>
<path d="M3260 1930 c-6 -11 -8 -20 -6 -20 3 0 10 9 16 20 6 11 8 20 6 20 -3
0 -10 -9 -16 -20z"/>
<path d="M1912 1915 c0 -16 2 -22 5 -12 2 9 2 23 0 30 -3 6 -5 -1 -5 -18z"/>
<path d="M2166 1927 c3 -10 9 -15 12 -12 3 3 0 11 -7 18 -10 9 -11 8 -5 -6z"/>
<path d="M2252 1920 c0 -8 6 -31 13 -50 7 -19 13 -28 13 -20 0 8 -6 31 -13 50
-7 19 -13 28 -13 20z"/>
<path d="M8124 1898 l-19 -23 23 19 c12 11 22 21 22 23 0 8 -8 2 -26 -19z"/>
<path d="M2833 1860 c0 -30 2 -43 4 -27 2 15 2 39 0 55 -2 15 -4 2 -4 -28z"/>
<path d="M3225 1870 c-9 -16 -13 -30 -11 -30 3 0 12 14 21 30 9 17 13 30 11
30 -3 0 -12 -13 -21 -30z"/>
<path d="M1892 1848 c-10 -30 -10 -31 3 -14 13 17 21 46 12 46 -1 0 -8 -15
-15 -32z"/>
<path d="M2190 1875 c0 -5 5 -17 10 -25 5 -8 10 -10 10 -5 0 6 -5 17 -10 25
-5 8 -10 11 -10 5z"/>
<path d="M8089 1853 c-13 -16 -12 -17 4 -4 16 13 21 21 13 21 -2 0 -10 -8 -17
-17z"/>
<path d="M1940 1830 c-6 -11 -8 -20 -6 -20 3 0 10 9 16 20 6 11 8 20 6 20 -3
0 -10 -9 -16 -20z"/>
<path d="M2216 1810 c3 -14 11 -32 16 -40 6 -10 7 -7 2 10 -3 14 -11 32 -16
40 -6 10 -7 7 -2 -10z"/>
<path d="M2281 1814 c0 -11 3 -14 6 -6 3 7 2 16 -1 19 -3 4 -6 -2 -5 -13z"/>
<path d="M7653 1823 c15 -2 37 -2 50 0 12 2 0 4 -28 4 -27 0 -38 -2 -22 -4z"/>
<path d="M7518 1813 c12 -2 30 -2 40 0 9 3 -1 5 -23 4 -22 0 -30 -2 -17 -4z"/>
<path d="M7788 1813 c12 -2 30 -2 40 0 9 3 -1 5 -23 4 -22 0 -30 -2 -17 -4z"/>
<path d="M1859 1793 c-13 -16 -12 -17 4 -4 9 7 17 15 17 17 0 8 -8 3 -21 -13z"/>
<path d="M3393 1730 c0 -47 2 -66 4 -42 2 23 2 61 0 85 -2 23 -4 4 -4 -43z"/>
<path d="M7443 1803 c9 -2 23 -2 30 0 6 3 -1 5 -18 5 -16 0 -22 -2 -12 -5z"/>
<path d="M7868 1803 c6 -2 18 -2 25 0 6 3 1 5 -13 5 -14 0 -19 -2 -12 -5z"/>
<path d="M1909 1783 c-13 -16 -12 -17 4 -4 9 7 17 15 17 17 0 8 -8 3 -21 -13z"/>
<path d="M7388 1793 c6 -2 18 -2 25 0 6 3 1 5 -13 5 -14 0 -19 -2 -12 -5z"/>
<path d="M7928 1793 c7 -3 16 -2 19 1 4 3 -2 6 -13 5 -11 0 -14 -3 -6 -6z"/>
<path d="M8045 1790 c-3 -5 -16 -11 -28 -11 -17 -1 -18 -2 -5 -6 15 -4 16 -8
7 -26 -9 -20 -9 -20 4 -4 8 9 18 17 23 17 6 0 10 9 10 20 0 23 -2 24 -11 10z"/>
<path d="M2291 1774 c0 -11 3 -14 6 -6 3 7 2 16 -1 19 -3 4 -6 -2 -5 -13z"/>
<path d="M3176 1775 c-9 -26 -7 -32 5 -12 6 10 9 21 6 23 -2 3 -7 -2 -11 -11z"/>
<path d="M7338 1783 c7 -3 16 -2 19 1 4 3 -2 6 -13 5 -11 0 -14 -3 -6 -6z"/>
<path d="M7968 1783 c7 -3 16 -2 19 1 4 3 -2 6 -13 5 -11 0 -14 -3 -6 -6z"/>
<path d="M1483 1735 c0 -27 2 -38 4 -22 2 15 2 37 0 50 -2 12 -4 0 -4 -28z"/>
<path d="M7298 1773 c7 -3 16 -2 19 1 4 3 -2 6 -13 5 -11 0 -14 -3 -6 -6z"/>
<path d="M1835 1760 c-3 -5 1 -10 10 -10 9 0 13 5 10 10 -3 6 -8 10 -10 10 -2
0 -7 -4 -10 -10z"/>
<path d="M2843 1730 c0 -25 2 -35 4 -22 2 12 2 32 0 45 -2 12 -4 2 -4 -23z"/>
<path d="M7258 1763 c7 -3 16 -2 19 1 4 3 -2 6 -13 5 -11 0 -14 -3 -6 -6z"/>
<path d="M7195 1750 c-13 -5 -14 -9 -5 -9 8 0 24 4 35 9 13 5 14 9 5 9 -8 0
-24 -4 -35 -9z"/>
<path d="M1615 1720 c-33 -34 -31 -39 10 -29 26 6 27 7 6 8 -23 1 -23 2 -7 20
10 11 30 22 45 24 l26 4 -26 2 c-16 0 -35 -9 -54 -29z"/>
<path d="M1817 1729 c4 -13 8 -18 11 -10 2 7 -1 18 -6 23 -8 8 -9 4 -5 -13z"/>
<path d="M2302 1730 c0 -14 2 -19 5 -12 2 6 2 18 0 25 -3 6 -5 1 -5 -13z"/>
<path d="M8110 1740 c8 -5 20 -10 25 -10 6 0 3 5 -5 10 -8 5 -19 10 -25 10 -5
0 -3 -5 5 -10z"/>
<path d="M1714 1719 c-8 -13 32 -16 43 -4 9 10 6 12 -14 11 -13 0 -27 -4 -29
-7z"/>
<path d="M2251 1710 c0 -8 4 -24 9 -35 5 -13 9 -14 9 -5 0 8 -4 24 -9 35 -5
13 -9 14 -9 5z"/>
<path d="M1668 1703 c6 -2 18 -2 25 0 6 3 1 5 -13 5 -14 0 -19 -2 -12 -5z"/>
<path d="M3153 1640 c0 -41 2 -58 4 -37 2 20 2 54 0 75 -2 20 -4 3 -4 -38z"/>
<path d="M8210 1700 c8 -5 20 -10 25 -10 6 0 3 5 -5 10 -8 5 -19 10 -25 10 -5
0 -3 -5 5 -10z"/>
<path d="M1760 1696 c0 -2 14 -14 30 -26 17 -12 30 -19 30 -16 0 2 -13 14 -30
26 -16 12 -30 19 -30 16z"/>
<path d="M1848 1675 c11 -16 36 -63 56 -102 20 -40 38 -73 41 -73 9 0 -72 154
-95 180 l-22 25 20 -30z"/>
<path d="M2312 1660 c0 -19 2 -27 5 -17 2 9 2 25 0 35 -3 9 -5 1 -5 -18z"/>
<path d="M6990 1680 c-8 -5 -10 -10 -5 -10 6 0 17 5 25 10 8 5 11 10 5 10 -5
0 -17 -5 -25 -10z"/>
<path d="M7976 1665 c-9 -26 -7 -32 5 -12 6 10 9 21 6 23 -2 3 -7 -2 -11 -11z"/>
<path d="M8270 1676 c0 -3 9 -10 20 -16 11 -6 20 -8 20 -6 0 3 -9 10 -20 16
-11 6 -20 8 -20 6z"/>
<path d="M6940 1660 c-8 -5 -10 -10 -5 -10 6 0 17 5 25 10 8 5 11 10 5 10 -5
0 -17 -5 -25 -10z"/>
<path d="M1500 1645 c0 -5 5 -17 10 -25 5 -8 10 -10 10 -5 0 6 -5 17 -10 25
-5 8 -10 11 -10 5z"/>
<path d="M2271 1634 c0 -11 3 -14 6 -6 3 7 2 16 -1 19 -3 4 -6 -2 -5 -13z"/>
<path d="M2854 1480 c0 -96 2 -136 3 -87 2 48 2 126 0 175 -1 48 -3 8 -3 -88z"/>
<path d="M6890 1640 c-8 -5 -10 -10 -5 -10 6 0 17 5 25 10 8 5 11 10 5 10 -5
0 -17 -5 -25 -10z"/>
<path d="M8320 1647 c0 -3 18 -20 40 -37 22 -17 40 -29 40 -27 0 3 -18 20 -40
37 -22 17 -40 29 -40 27z"/>
<path d="M6810 1605 c-14 -8 -20 -14 -15 -14 6 0 21 6 35 14 14 8 21 14 15 14
-5 0 -21 -6 -35 -14z"/>
<path d="M2281 1594 c0 -11 3 -14 6 -6 3 7 2 16 -1 19 -3 4 -6 -2 -5 -13z"/>
<path d="M6008 1603 c6 -2 18 -2 25 0 6 3 1 5 -13 5 -14 0 -19 -2 -12 -5z"/>
<path d="M1861 1590 c0 -8 6 -28 14 -45 17 -39 18 -21 0 25 -7 19 -14 28 -14
20z"/>
<path d="M2323 1565 c0 -22 2 -30 4 -17 2 12 2 30 0 40 -3 9 -5 -1 -4 -23z"/>
<path d="M3382 1560 c0 -19 2 -27 5 -17 2 9 2 25 0 35 -3 9 -5 1 -5 -18z"/>
<path d="M5929 1563 l-24 -28 28 24 c15 14 27 26 27 28 0 8 -8 1 -31 -24z"/>
<path d="M6100 1565 c13 -14 26 -25 28 -25 3 0 -5 11 -18 25 -13 14 -26 25
-28 25 -3 0 5 -11 18 -25z"/>
<path d="M2291 1554 c0 -11 3 -14 6 -6 3 7 2 16 -1 19 -3 4 -6 -2 -5 -13z"/>
<path d="M6628 1519 c-54 -27 -98 -51 -98 -54 0 -5 199 92 209 101 15 14 -27
-4 -111 -47z"/>
<path d="M7941 1554 c0 -11 3 -14 6 -6 3 7 2 16 -1 19 -3 4 -6 -2 -5 -13z"/>
<path d="M8424 1526 c12 -23 22 -39 24 -35 4 9 -24 66 -36 73 -5 3 1 -14 12
-38z"/>
<path d="M3161 1544 c0 -11 3 -14 6 -6 3 7 2 16 -1 19 -3 4 -6 -2 -5 -13z"/>
<path d="M2301 1514 c0 -11 3 -14 6 -6 3 7 2 16 -1 19 -3 4 -6 -2 -5 -13z"/>
<path d="M7932 1510 c0 -14 2 -19 5 -12 2 6 2 18 0 25 -3 6 -5 1 -5 -13z"/>
<path d="M3172 1478 c-1 -25 -5 -55 -8 -65 -5 -17 -5 -17 6 0 6 9 9 39 7 65
l-3 47 -2 -47z"/>
<path d="M1577 1483 c9 -18 42 -57 72 -85 l55 -53 -54 60 c-31 33 -63 71 -73
85 -17 24 -17 24 0 -7z"/>
<path d="M1891 1494 c0 -11 3 -14 6 -6 3 7 2 16 -1 19 -3 4 -6 -2 -5 -13z"/>
<path d="M3372 1490 c0 -14 2 -19 5 -12 2 6 2 18 0 25 -3 6 -5 1 -5 -13z"/>
<path d="M1967 1459 c10 -18 53 -69 95 -114 l77 -82 -27 -29 -27 -29 32 30 33
29 -68 70 c-38 39 -81 90 -97 114 -32 49 -44 56 -18 11z"/>
<path d="M2311 1474 c0 -11 3 -14 6 -6 3 7 2 16 -1 19 -3 4 -6 -2 -5 -13z"/>
<path d="M2329 1468 c-2 -13 -1 -59 2 -103 l5 -80 2 103 c2 98 -2 127 -9 80z"/>
<path d="M5891 1474 c0 -11 3 -14 6 -6 3 7 2 16 -1 19 -3 4 -6 -2 -5 -13z"/>
<path d="M6141 1474 c0 -11 3 -14 6 -6 3 7 2 16 -1 19 -3 4 -6 -2 -5 -13z"/>
<path d="M1901 1454 c0 -11 3 -14 6 -6 3 7 2 16 -1 19 -3 4 -6 -2 -5 -13z"/>
<path d="M7923 1420 c0 -30 2 -43 4 -27 2 15 2 39 0 55 -2 15 -4 2 -4 -28z"/>
<path d="M8452 1445 c0 -16 2 -22 5 -12 2 9 2 23 0 30 -3 6 -5 -1 -5 -18z"/>
<path d="M3361 1444 c0 -11 3 -14 6 -6 3 7 2 16 -1 19 -3 4 -6 -2 -5 -13z"/>
<path d="M6438 1419 c-21 -11 -38 -22 -38 -24 0 -3 18 4 40 15 22 11 40 23 40
25 0 7 0 7 -42 -16z"/>
<path d="M5900 1421 c0 -6 4 -13 10 -16 6 -3 7 1 4 9 -7 18 -14 21 -14 7z"/>
<path d="M6126 1413 c-6 -14 -5 -15 5 -6 7 7 10 15 7 18 -3 3 -9 -2 -12 -12z"/>
<path d="M3352 1390 c0 -19 2 -27 5 -17 2 9 2 25 0 35 -3 9 -5 1 -5 -18z"/>
<path d="M1912 1385 c0 -16 2 -22 5 -12 2 9 2 23 0 30 -3 6 -5 -1 -5 -18z"/>
<path d="M6358 1374 c-38 -20 -36 -28 2 -9 17 9 30 18 30 20 0 7 -1 6 -32 -11z"/>
<path d="M3110 1339 c-35 -31 -35 -31 -3 -9 18 11 35 25 38 30 10 16 2 11 -35
-21z"/>
<path d="M1970 1315 c-24 -25 -42 -45 -39 -45 3 0 25 20 49 45 24 25 42 45 39
45 -3 0 -25 -20 -49 -45z"/>
<path d="M7930 1354 c0 -6 7 -19 16 -30 14 -18 14 -18 3 6 -14 31 -19 36 -19
24z"/>
<path d="M6288 1334 c-38 -20 -36 -28 2 -9 17 9 30 18 30 20 0 7 -1 6 -32 -11z"/>
<path d="M8400 1318 c-15 -21 -17 -28 -6 -19 16 13 41 51 33 51 -2 0 -14 -15
-27 -32z"/>
<path d="M2052 1295 c0 -16 2 -22 5 -12 2 9 2 23 0 30 -3 6 -5 -1 -5 -18z"/>
<path d="M1770 1307 c0 -2 18 -17 41 -31 l41 -28 24 23 c13 12 24 26 24 31 0
5 -11 -3 -23 -18 l-24 -28 -29 21 c-39 27 -54 35 -54 30z"/>
<path d="M3044 1288 l-19 -23 23 19 c12 11 22 21 22 23 0 8 -8 2 -26 -19z"/>
<path d="M6224 1294 c-18 -14 -18 -15 4 -4 12 6 22 13 22 15 0 8 -5 6 -26 -11z"/>
<path d="M7990 1265 c19 -19 36 -35 39 -35 3 0 -10 16 -29 35 -19 19 -36 35
-39 35 -3 0 10 -16 29 -35z"/>
<path d="M3386 1277 c3 -10 9 -15 12 -12 3 3 0 11 -7 18 -10 9 -11 8 -5 -6z"/>
<path d="M6174 1264 c-18 -14 -18 -15 4 -4 12 6 22 13 22 15 0 8 -5 6 -26 -11z"/>
<path d="M1902 1237 l-21 -23 25 -29 26 -30 -21 31 -20 31 22 21 c12 12 19 22
16 22 -3 0 -15 -10 -27 -23z"/>
<path d="M2863 1225 c0 -22 2 -30 4 -17 2 12 2 30 0 40 -3 9 -5 -1 -4 -23z"/>
<path d="M3009 1243 c-13 -16 -12 -17 4 -4 9 7 17 15 17 17 0 8 -8 3 -21 -13z"/>
<path d="M8334 1249 c-3 -6 -30 -22 -58 -35 -28 -13 -45 -24 -38 -24 19 0 86
36 101 54 8 9 11 16 8 16 -3 0 -9 -5 -13 -11z"/>
<path d="M2060 1219 c0 -16 4 -28 9 -25 8 5 3 56 -5 56 -2 0 -4 -14 -4 -31z"/>
<path d="M2154 1228 l-19 -23 25 20 c14 11 27 21 29 22 2 2 0 3 -6 3 -5 0 -18
-10 -29 -22z"/>
<path d="M2233 1233 c9 -2 25 -2 35 0 9 3 1 5 -18 5 -19 0 -27 -2 -17 -5z"/>
<path d="M2313 1223 c9 -2 23 -2 30 0 6 3 -1 5 -18 5 -16 0 -22 -2 -12 -5z"/>
<path d="M6094 1214 c-18 -14 -18 -15 4 -4 12 6 22 13 22 15 0 8 -5 6 -26 -11z"/>
<path d="M8054 1216 c11 -9 24 -16 30 -16 12 0 7 5 -24 19 -24 11 -24 11 -6
-3z"/>
<path d="M2378 1213 c6 -2 18 -2 25 0 6 3 1 5 -13 5 -14 0 -19 -2 -12 -5z"/>
<path d="M2970 1179 c-12 -23 -20 -43 -18 -45 3 -2 14 17 26 41 27 56 20 60
-8 4z"/>
<path d="M2104 1188 l-19 -23 23 19 c21 18 27 26 19 26 -2 0 -12 -10 -23 -22z"/>
<path d="M2428 1203 c7 -3 16 -2 19 1 4 3 -2 6 -13 5 -11 0 -14 -3 -6 -6z"/>
<path d="M2478 1193 c7 -3 16 -2 19 1 4 3 -2 6 -13 5 -11 0 -14 -3 -6 -6z"/>
<path d="M3401 1184 c0 -11 3 -14 6 -6 3 7 2 16 -1 19 -3 4 -6 -2 -5 -13z"/>
<path d="M6033 1179 c-35 -22 -46 -37 -15 -20 22 13 58 40 52 41 -3 0 -20 -10
-37 -21z"/>
<path d="M2518 1183 c7 -3 16 -2 19 1 4 3 -2 6 -13 5 -11 0 -14 -3 -6 -6z"/>
<path d="M8158 1183 c12 -2 32 -2 45 0 12 2 2 4 -23 4 -25 0 -35 -2 -22 -4z"/>
<path d="M2051 1172 c-1 -19 -64 -72 -80 -67 -11 5 -11 3 -1 -9 10 -13 15 -11
37 14 14 17 31 30 38 30 7 0 19 8 26 17 8 9 9 14 2 10 -6 -4 -14 -1 -16 5 -4
10 -6 10 -6 0z"/>
<path d="M2559 1171 c11 -7 10 -11 -5 -20 -11 -6 -14 -11 -8 -11 6 0 17 6 23
13 11 14 5 27 -13 27 -6 0 -5 -4 3 -9z"/>
<path d="M2873 1125 c0 -22 2 -30 4 -17 2 12 2 30 0 40 -3 9 -5 -1 -4 -23z"/>
<path d="M3410 1154 c0 -6 7 -19 16 -30 14 -18 14 -18 3 6 -14 31 -19 36 -19
24z"/>
<path d="M1930 1146 c0 -2 8 -10 18 -17 15 -13 16 -12 3 4 -13 16 -21 21 -21
13z"/>
<path d="M2405 1141 c-3 -6 5 -15 17 -21 21 -10 22 -10 5 4 -18 14 -17 15 15
19 l33 4 -32 1 c-17 1 -34 -2 -38 -7z"/>
<path d="M2498 1133 c7 -3 16 -2 19 1 4 3 -2 6 -13 5 -11 0 -14 -3 -6 -6z"/>
<path d="M2450 1106 c0 -3 9 -10 20 -16 11 -6 20 -8 20 -6 0 3 -9 10 -20 16
-11 6 -20 8 -20 6z"/>
<path d="M5812 1035 c-61 -41 -112 -78 -112 -80 0 -5 206 129 225 146 24 23
-9 3 -113 -66z"/>
<path d="M3446 1085 c4 -11 -6 -30 -27 -53 l-34 -37 38 34 c37 35 45 55 27 66
-6 3 -7 -1 -4 -10z"/>
<path d="M2030 1083 c0 -6 8 -17 18 -24 16 -13 16 -13 2 6 -8 11 -16 22 -17
24 -2 2 -3 0 -3 -6z"/>
<path d="M2060 1086 c0 -2 8 -10 18 -17 15 -13 16 -12 3 4 -13 16 -21 21 -21
13z"/>
<path d="M2534 1055 c11 -8 24 -15 29 -15 4 0 5 -4 2 -10 -3 -5 -2 -10 4 -10
26 0 16 18 -17 34 -29 13 -33 13 -18 1z"/>
<path d="M2921 1054 c0 -11 3 -14 6 -6 3 7 2 16 -1 19 -3 4 -6 -2 -5 -13z"/>
<path d="M2882 1035 c0 -16 2 -22 5 -12 2 9 2 23 0 30 -3 6 -5 -1 -5 -18z"/>
<path d="M2090 1030 c13 -10 28 -16 32 -14 3 2 9 0 13 -6 6 -11 45 -33 45 -27
0 2 -18 17 -41 33 -47 32 -90 45 -49 14z"/>
<path d="M2390 1035 c0 -3 32 -21 71 -41 60 -30 70 -38 66 -56 -4 -15 -3 -18
5 -10 19 19 0 41 -57 69 -50 25 -54 29 -33 34 18 6 15 7 -14 8 -21 1 -38 -1
-38 -4z"/>
<path d="M2911 1014 c0 -11 3 -14 6 -6 3 7 2 16 -1 19 -3 4 -6 -2 -5 -13z"/>
<path d="M2513 1013 c9 -2 23 -2 30 0 6 3 -1 5 -18 5 -16 0 -22 -2 -12 -5z"/>
<path d="M4709 996 c-90 -24 -141 -82 -159 -177 -16 -87 2 -134 115 -297 55
-79 101 -139 103 -134 1 5 -40 71 -92 146 -107 155 -121 186 -113 263 11 110
98 193 202 193 99 0 187 -80 201 -183 11 -77 -2 -111 -98 -253 -50 -74 -89
-137 -86 -139 3 -3 45 52 94 122 102 148 120 196 104 283 -24 130 -146 210
-271 176z"/>
<path d="M3340 980 c-19 -11 -31 -19 -27 -20 11 0 67 29 67 35 0 7 -1 7 -40
-15z"/>
<path d="M2288 983 c6 -2 18 -2 25 0 6 3 1 5 -13 5 -14 0 -19 -2 -12 -5z"/>
<path d="M2901 974 c0 -11 3 -14 6 -6 3 7 2 16 -1 19 -3 4 -6 -2 -5 -13z"/>
<path d="M2216 971 c-3 -5 1 -12 10 -15 8 -3 12 -2 9 3 -3 5 3 12 12 14 14 4
13 5 -4 6 -12 0 -24 -3 -27 -8z"/>
<path d="M2380 965 c0 -2 18 -14 40 -25 22 -11 40 -18 40 -15 0 2 -18 14 -40
25 -22 11 -40 18 -40 15z"/>
<path d="M3415 961 c-3 -5 -1 -12 5 -16 5 -3 10 1 10 9 0 18 -6 21 -15 7z"/>
<path d="M2260 940 c8 -5 20 -10 25 -10 6 0 3 5 -5 10 -8 5 -19 10 -25 10 -5
0 -3 -5 5 -10z"/>
<path d="M3195 925 c-25 -12 -26 -14 -5 -9 28 7 60 23 45 23 -5 0 -23 -6 -40
-14z"/>
<path d="M2310 920 c8 -5 20 -10 25 -10 6 0 3 5 -5 10 -8 5 -19 10 -25 10 -5
0 -3 -5 5 -10z"/>
<path d="M3411 914 c0 -11 3 -14 6 -6 3 7 2 16 -1 19 -3 4 -6 -2 -5 -13z"/>
<path d="M2458 890 c-9 -17 -13 -30 -8 -30 5 0 12 9 15 21 4 11 16 24 28 29
21 8 21 9 2 9 -12 1 -27 -11 -37 -29z"/>
<path d="M4724 904 c-22 -8 -40 -14 -41 -14 -1 0 -11 -15 -22 -34 -81 -130 93
-265 196 -152 65 71 33 185 -58 205 -24 6 -49 4 -75 -5z m102 -23 c95 -58 52
-201 -60 -201 -110 0 -149 129 -61 198 34 27 80 28 121 3z"/>
<path d="M2360 900 c8 -5 20 -10 25 -10 6 0 3 5 -5 10 -8 5 -19 10 -25 10 -5
0 -3 -5 5 -10z"/>
<path d="M2543 903 c9 -2 23 -2 30 0 6 3 -1 5 -18 5 -16 0 -22 -2 -12 -5z"/>
<path d="M3118 894 c-24 -13 -28 -20 -26 -57 l1 -42 4 41 c3 34 9 43 36 57 18
9 28 16 22 16 -5 0 -22 -7 -37 -15z"/>
<path d="M5595 884 l-30 -26 33 22 c17 12 32 23 32 26 0 7 -4 5 -35 -22z"/>
<path d="M2613 893 c9 -2 23 -2 30 0 6 3 -1 5 -18 5 -16 0 -22 -2 -12 -5z"/>
<path d="M2918 893 c17 -2 47 -2 65 0 17 2 3 4 -33 4 -36 0 -50 -2 -32 -4z"/>
<path d="M2683 883 c9 -2 23 -2 30 0 6 3 -1 5 -18 5 -16 0 -22 -2 -12 -5z"/>
<path d="M2858 883 c7 -3 16 -2 19 1 4 3 -2 6 -13 5 -11 0 -14 -3 -6 -6z"/>
<path d="M3048 828 c5 -107 9 -117 11 -25 0 48 -2 87 -6 87 -5 0 -7 -28 -5
-62z"/>
<path d="M2753 873 c9 -2 23 -2 30 0 6 3 -1 5 -18 5 -16 0 -22 -2 -12 -5z"/>
<path d="M2292 824 c-13 -26 -21 -48 -19 -50 2 -2 12 14 22 36 10 23 26 45 34
50 14 8 14 9 0 10 -8 0 -25 -20 -37 -46z"/>
<path d="M3365 839 c-16 -10 -25 -19 -19 -19 7 0 22 9 35 20 30 24 23 24 -16
-1z"/>
<path d="M2390 840 c8 -5 20 -10 25 -10 6 0 3 5 -5 10 -8 5 -19 10 -25 10 -5
0 -3 -5 5 -10z"/>
<path d="M5495 814 l-30 -26 33 22 c17 12 32 23 32 26 0 7 -4 5 -35 -22z"/>
<path d="M2486 805 c17 -7 44 -16 60 -20 25 -4 24 -3 -6 8 -19 8 -46 17 -60
20 -19 5 -17 3 6 -8z"/>
<path d="M3300 810 c-8 -5 -10 -10 -5 -10 6 0 17 5 25 10 8 5 11 10 5 10 -5 0
-17 -5 -25 -10z"/>
<path d="M3400 805 c0 -5 5 -17 10 -25 5 -8 10 -10 10 -5 0 6 -5 17 -10 25 -5
8 -10 11 -10 5z"/>
<path d="M3250 790 c-8 -5 -10 -10 -5 -10 6 0 17 5 25 10 8 5 11 10 5 10 -5 0
-17 -5 -25 -10z"/>
<path d="M5425 764 l-30 -26 33 22 c17 12 32 23 32 26 0 7 -4 5 -35 -22z"/>
<path d="M2628 763 c7 -3 16 -2 19 1 4 3 -2 6 -13 5 -11 0 -14 -3 -6 -6z"/>
<path d="M2668 753 c6 -2 18 -2 25 0 6 3 1 5 -13 5 -14 0 -19 -2 -12 -5z"/>
<path d="M3100 747 c0 -10 8 -17 18 -17 9 0 13 4 7 8 -5 4 -13 11 -17 16 -5 5
-8 2 -8 -7z"/>
<path d="M2733 743 c9 -2 23 -2 30 0 6 3 -1 5 -18 5 -16 0 -22 -2 -12 -5z"/>
<path d="M5345 709 c-59 -45 -67 -57 -12 -18 42 29 65 50 55 49 -2 0 -21 -14
-43 -31z"/>
<path d="M3431 714 c0 -11 3 -14 6 -6 3 7 2 16 -1 19 -3 4 -6 -2 -5 -13z"/>
<path d="M2978 713 c12 -2 30 -2 40 0 9 3 -1 5 -23 4 -22 0 -30 -2 -17 -4z"/>
<path d="M2898 703 c12 -2 30 -2 40 0 9 3 -1 5 -23 4 -22 0 -30 -2 -17 -4z"/>
<path d="M2231 664 c0 -11 3 -14 6 -6 3 7 2 16 -1 19 -3 4 -6 -2 -5 -13z"/>
<path d="M3441 664 c0 -11 3 -14 6 -6 3 7 2 16 -1 19 -3 4 -6 -2 -5 -13z"/>
<path d="M5245 634 l-30 -26 33 22 c17 12 32 23 32 26 0 7 -4 5 -35 -22z"/>
<path d="M3452 610 c0 -14 2 -19 5 -12 2 6 2 18 0 25 -3 6 -5 1 -5 -13z"/>
<path d="M5175 584 l-30 -26 33 22 c17 12 32 23 32 26 0 7 -4 5 -35 -22z"/>
<path d="M2211 584 c0 -11 3 -14 6 -6 3 7 2 16 -1 19 -3 4 -6 -2 -5 -13z"/>
<path d="M3462 540 c0 -19 2 -27 5 -17 2 9 2 25 0 35 -3 9 -5 1 -5 -18z"/>
<path d="M2202 540 c0 -14 2 -19 5 -12 2 6 2 18 0 25 -3 6 -5 1 -5 -13z"/>
<path d="M5093 529 c-24 -17 -43 -32 -43 -35 0 -3 20 9 45 26 25 17 45 33 45
35 0 7 -2 6 -47 -26z"/>
<path d="M2192 490 c0 -14 2 -19 5 -12 2 6 2 18 0 25 -3 6 -5 1 -5 -13z"/>
<path d="M3473 450 c0 -25 2 -35 4 -22 2 12 2 32 0 45 -2 12 -4 2 -4 -23z"/>
<path d="M4965 444 c-51 -34 -69 -52 -29 -29 35 20 82 54 74 55 -3 0 -23 -12
-45 -26z"/>
<path d="M2182 430 c0 -14 2 -19 5 -12 2 6 2 18 0 25 -3 6 -5 1 -5 -13z"/>
<path d="M2172 380 c0 -14 2 -19 5 -12 2 6 2 18 0 25 -3 6 -5 1 -5 -13z"/>
<path d="M3482 370 c0 -14 2 -19 5 -12 2 6 2 18 0 25 -3 6 -5 1 -5 -13z"/>
<path d="M4844 364 c-18 -14 -18 -15 4 -4 12 6 22 13 22 15 0 8 -5 6 -26 -11z"/>
<path d="M4794 334 c-18 -14 -18 -15 4 -4 12 6 22 13 22 15 0 8 -5 6 -26 -11z"/>
<path d="M2162 320 c0 -14 2 -19 5 -12 2 6 2 18 0 25 -3 6 -5 1 -5 -13z"/>
<path d="M3491 324 c0 -11 3 -14 6 -6 3 7 2 16 -1 19 -3 4 -6 -2 -5 -13z"/>
<path d="M4744 304 c-18 -14 -18 -15 4 -4 12 6 22 13 22 15 0 8 -5 6 -26 -11z"/>
<path d="M537 283 c299 -2 787 -2 1085 0 299 1 55 2 -542 2 -597 0 -841 -1
-543 -2z"/>
<path d="M4668 264 c-38 -20 -36 -28 2 -9 17 9 30 18 30 20 0 7 -1 6 -32 -11z"/>
<path d="M3520 244 c0 -6 7 -19 16 -30 14 -18 14 -18 3 6 -14 31 -19 36 -19
24z"/>
<path d="M4540 195 c-14 -8 -20 -14 -14 -15 5 0 19 7 30 15 24 18 16 19 -16 0z"/>
<path d="M3600 125 c19 -19 36 -35 39 -35 3 0 -10 16 -29 35 -19 19 -36 35
-39 35 -3 0 10 -16 29 -35z"/>
<path d="M4410 135 c-14 -8 -20 -14 -15 -14 6 0 21 6 35 14 14 8 21 14 15 14
-5 0 -21 -6 -35 -14z"/>
<path d="M4350 110 c-8 -5 -10 -10 -5 -10 6 0 17 5 25 10 8 5 11 10 5 10 -5 0
-17 -5 -25 -10z"/>
<path d="M4300 90 c-8 -5 -10 -10 -5 -10 6 0 17 5 25 10 8 5 11 10 5 10 -5 0
-17 -5 -25 -10z"/>
<path d="M3694 56 c11 -9 24 -16 30 -16 12 0 7 5 -24 19 -24 11 -24 11 -6 -3z"/>
<path d="M4198 53 c7 -3 16 -2 19 1 4 3 -2 6 -13 5 -11 0 -14 -3 -6 -6z"/>
<path d="M4118 33 c6 -2 18 -2 25 0 6 3 1 5 -13 5 -14 0 -19 -2 -12 -5z"/>
<path d="M4078 23 c7 -3 16 -2 19 1 4 3 -2 6 -13 5 -11 0 -14 -3 -6 -6z"/>
<path d="M3818 13 c6 -2 18 -2 25 0 6 3 1 5 -13 5 -14 0 -19 -2 -12 -5z"/>
<path d="M4003 13 c9 -2 25 -2 35 0 9 3 1 5 -18 5 -19 0 -27 -2 -17 -5z"/>
<path d="M3898 3 c12 -2 30 -2 40 0 9 3 -1 5 -23 4 -22 0 -30 -2 -17 -4z"/>
</g>
</svg>
